<svg width="152" height="100" xmlns="http://www.w3.org/2000/svg"><g id="Page-1" stroke="none" stroke-width="1" fill="none" fill-rule="evenodd"><g id="Home" transform="translate(-774 -53)" fill="#FFF" fill-rule="nonzero"><path d="M832.564 148.173a1.58 1.58 0 011.126.39c.215.227.33.53.322.842v.011c0 .634-.383 1.019-.93 1.178l1.053 1.476h-.808l-.958-1.358h-.858v1.358h-.685v-3.897zm15.199-.034l1.716 3.931h-.723l-.396-.94h-1.844l-.402.94h-.701l1.715-3.93h.635zm-45.124.027v.614h-2.206v1.013h1.955v.614h-1.955v1.048h2.234v.612h-2.92v-3.901h2.892zm92.933 0v.637h-1.237v3.264h-.69v-3.264h-1.238v-.637h3.165zm-15.928 0v.614h-2.208v1.013h1.957v.614h-1.957v1.048h2.236v.612h-2.92v-3.901h2.892zm-71.629 0l2.09 2.698v-2.698h.675v3.9h-.574l-2.15-2.774v2.775h-.676v-3.901h.635zm10.553 0v.637h-1.237v3.264h-.691v-3.264h-1.236v-.637h3.164zm7.517 0v.614h-2.208v1.013h1.957v.614h-1.957v1.048h2.236v.612h-2.92v-3.901h2.892zm15.54 0v.637h-1.24v3.264h-.69v-3.264h-1.236v-.637h3.166zm13.146 0v3.9h-.684v-3.9h.684zm13.975 0l1.186 1.846 1.187-1.846h.73v3.9h-.685v-2.796l-1.232 1.84h-.022l-1.22-1.83v2.787h-.674v-3.901h.73zm16.275 0l2.09 2.698v-2.698h.673v3.9h-.574l-2.151-2.774v2.775h-.674v-3.901h.636zm-24.672 0l2.09 2.698v-2.698h.675v3.9h-.574l-2.151-2.774v2.775h-.675v-3.901h.635zm-12.92.791l-.663 1.56h1.338l-.675-1.56zm-14.923-.16h-.995v1.31h1.002c.49 0 .801-.256.801-.652v-.01c0-.42-.3-.647-.808-.647zm9.34-95.727c.596 3.194.535 6.116-.399 8.667.771-.108 1.458-.846 2.226-.953-.036.77-.129 1.536-.279 2.292l-2.537 1.849 2.418-1.23c-.607 2.93-1.805 6.65-3.019 8.292 1.821-2.035 2.918-3.24 4.037-3.724-1.585 2.357-2.202 4.28-2.438 5.996.25-.61.526-1.226.83-1.841a13.33 13.33 0 00.177 3.086c.818-3.932 2.741-6.411 5.735-10.262-.456 1.474-.269 2.106-.035 2.985 1.037-3.864 4.277-5.923 7.079-7.775-.875 1.347-1.448 1.995-2.14 3.17 5.54-4.847 13.293-1.735 15.78-.74-6.499.136-8.36 1.021-10.768 2.404 2.05-.502 3.08-.44 3.91-.11-3.918 1.313-8.346 4.283-10.864 6.174 1.72-.737 3.756-1.123 5.612-.592-4.363 2.842-8.324 5.592-11.495 9.145a27.82 27.82 0 015.65-1.461c-1.13.74-2.03.756-2.905 1.585 3.617-1.77 6.543-2.138 10.886-1.051-1.07.262-2.099.671-3.056 1.217 3.629-1.355 8.629 1.085 10.02 2.844-1.456-.476-2.315-.9-3.58-.808 6.325 1.926 8.14 7.873 6.136 14.522-2.634-4.731-1.144-7.244-5.431-11.79 2.338 4.773 1.782 6.42 1.849 7.312-2.652-3.905-5.875-7.237-8.86-8.624 1.319 1.042 4.138 3.765 4.478 5.664-1.297-.65-3.896-1.768-5.329-2.322-4.617-1.776-3.3-2.655-7.348-4.684 1.72 1.423 3.517 2.989 4.373 5.376l.474.588a13.51 13.51 0 00-2.86-1.177c3.192 2.44 4.598 5.249 6.766 9.62-1.134-1.057-1.781-1.162-2.675-1.328 3.037 2.617 3.486 6.419 3.947 9.744-.837-1.37-1.166-2.17-1.93-3.302 1.972 7.085-4.188 12.74-6.163 14.548 2.386-5.258 2.66-7.47 2.545-9.846l-.02-.357a43.37 43.37 0 00-.038-.547c-.43 2.076-.943 2.975-1.592 3.569.511-4.102-.25-9.376-.862-12.464-.08 1.871-.612 3.878-1.894 5.324-.844-6.458-1.838-12.304-4.878-17.58-.36.003-.711.015-1.06.042a27.68 27.68 0 00-1.145 2.21l-.131-.278c2.006 14.765 8.556 38.3 16.568 52.705l-5.753 1.864c-3.145-6.89-5.805-14.48-7.877-22.02l-5.141 10.379-2.012 4.413-2.118 4.694h-6.81l12.037-24.92h2.654c-2.564-10.751-3.854-21.034-3.544-28.575v-.01l.011-.023-.602.111a6.55 6.55 0 01.435-.623l-.332-.06c-2.378 1.547-4.657 3.935-6.045 8.813-.864-2.536-.328-4.984.22-7.233-2.043 4.045-.46 3.96-3.114 8.14-.821 1.296-2.237 3.742-2.9 5.035-.86-1.728-.213-5.595.228-7.222-1.582 2.895-2.187 7.484-1.99 12.205-.473-.747-1.9-1.739-2.86-6.966-.41 3.482.255 5.365 1.042 7.296l.207.506c.557 1.357 1.133 2.806 1.405 4.902-5.566-4.15-7.645-10.012-3.708-15.32-1.073.68-1.514 1.525-2.4 2.78.075-2.246 2.642-7.175 6.362-8.25a11.805 11.805 0 00-3.178.847c2.841-3.458 5.415-4.901 9.374-5.631-1.2-.14-1.929.375-3.277.458l.466-.242c-3.131.514-6.287 1.388-9.58 2.37.803-1.762 2.419-3.067 4.087-3.896-3.073.698-8.203 2.153-11.732 4.284.28-.836.897-1.669 2.614-2.908-2.62.942-4.493 1.793-8.805 6.65.85-2.537 3.502-10.462 10.78-11.552-1.348-.234-2.21-.212-3.803-.42 3.224-.928 6.891-2.073 10.507-.353-.516-.745-.881-1.299-2.296-1.906 4.873.204 8.007.344 11.537 2.27a12.726 12.726 0 00-1.068-1.142c-2.802-1.17-5.682-1.955-8.706-2.697.979-1.436 2.576-1.952 4.146-1.933-2.743-.917-7.375-2.145-10.76-1.778.382-.737 1.052-1.286 2.727-1.682-2.399-.408-4.148-.516-8.653 2.322 1.15-2.24 4.752-9.23 11.162-6.45-1.115-.983-1.856-1.42-3.183-2.503 2.92.747 6.238 1.521 9.057 5.288-.32-1.073-.534-1.854-1.647-3.264 3.96 2.731 6.571 4.53 9.154 8.153l.194.098c-.4-1.061-.87-2.094-1.41-3.092a37.965 37.965 0 012.919 3.241c-.682-1.481-1.511-3.397-2.594-6.208 1.187.58 2.242.926 2.846.445-.798-1.8-1.027-3.44-.874-4.976l2.322 2.986-1.99-4.769c.134-.47.296-.932.486-1.383.681.327 1.705 3.072 2.386 3.404-.07-3.842 1.556-8.207 3.634-10.031zm-54.23 59.719c3.635 0 6.425.529 9 1.94 1.729.925 3.16 2.32 4.13 4.024l-5.929 1.482c-.212-.388-.706-1.305-2.187-2.046-1.66-.813-3.813-.954-5.014-.954-2.756 0-5.576.53-5.576 2.894 0 1.624 1.446 2.048 3.317 2.471 1.023.213 6.112 1.06 7.273 1.307 2.894.53 7.8 1.587 7.793 7.06 0 7.797-9.03 8.272-12.406 8.292h-.486c-4.098-.026-10.25-.817-13.405-7.023l5.684-1.483c1.41 3 4.977 3.92 8.365 3.92 1.517 0 6.282-.248 6.282-3.284 0-1.806-1.73-2.223-3.07-2.47-.512-.103-2.049-.35-3.602-.598l-.664-.106c-1.318-.21-2.543-.406-3.04-.497-2.295-.422-8.084-1.525-8.084-7.164a6.83 6.83 0 01.995-3.531c2.083-3.352 6.672-4.234 10.624-4.234zm111.687.776v10.906l12.177-10.906h8.014l-12.142 10.518 13.835 14.4h-8.33l-9.777-10.73-3.777 3.248v7.483h-6.176v-24.92h6.176zm24.475 23.202v.302h-.53v1.415h-.328v-1.415h-.529v-.302h1.387zm.72 0l.517.814.517-.814h.342v1.717h-.318v-1.221l-.53.826h-.033l-.53-.826v1.22h-.317v-1.716h.352zm-103.39-23.238c2.612.009 5.889.196 7.806 2.93.879 1.27 1.377 3 1.377 4.906 0 2.4-.777 4.023-1.695 5.118-2.047 2.471-5.047 2.612-8.265 2.612h-8.718v9.389h-6.137v-24.956zm57.547.03c2.823 0 5.4.253 7.483 2.653 1.27 1.483 1.624 3.353 1.624 4.8 0 1.907-.635 4.166-2.4 5.506-1.341 1.025-3.071 1.376-4.06 1.554l7.553 10.412h-7.34l-6.673-10.024h-7.093v10.024h-6.247v-24.926zm-59.444 4.312h-7.598v6.847h7.85c1.988-.003 4.615-.112 4.61-3.353 0-1.342-.46-2.188-1.058-2.753-.783-.685-1.624-.737-3.804-.741zm58.209.07h-9.67v6.1h10.064c1.36-.01 3.63-.243 3.633-2.958 0-.494-.073-1.342-.498-1.942-.458-.599-1.058-1.2-3.53-1.2z" id="Combined-Shape"/></g></g></svg>