<?xml version="1.0" encoding="UTF-8"?>
<svg width="152px" height="100px" viewBox="0 0 152 100" version="1.1" xmlns="http://www.w3.org/2000/svg" xmlns:xlink="http://www.w3.org/1999/xlink">
    <title>Combined Shape</title>
    <g id="Page-1" stroke="none" stroke-width="1" fill="none" fill-rule="evenodd">
        <g id="Home" transform="translate(-774.000000, -53.000000)" fill="#FFFFFF" fill-rule="nonzero">
            <path d="M832.564338,148.172558 C832.976182,148.150571 833.380307,148.290438 833.690449,148.562302 C833.904629,148.789706 834.020275,149.092531 834.012196,149.404813 L834.012196,149.404813 L834.012196,149.416423 C834.012196,150.049964 833.629085,150.434733 833.081785,150.593948 L833.081785,150.593948 L834.134924,152.07 L833.327241,152.07 L832.368636,150.7117 L831.511199,150.7117 L831.511199,152.07 L830.826244,152.07 L830.826244,148.172558 Z M847.762702,148.139388 L849.479235,152.07 L848.756136,152.07 L848.359757,151.129638 L846.515521,151.129638 L846.114167,152.07 L845.412628,152.07 L847.127502,148.139388 L847.762702,148.139388 Z M802.638618,148.165924 L802.638618,148.779564 L800.432831,148.779564 L800.432831,149.792899 L802.388186,149.792899 L802.388186,150.406539 L800.432831,150.406539 L800.432831,151.454702 L802.666812,151.454702 L802.666812,152.066683 L799.747877,152.066683 L799.747877,148.165924 L802.638618,148.165924 Z M895.571876,148.165924 L895.571876,148.802783 L894.334646,148.802783 L894.334646,152.066683 L893.644715,152.066683 L893.644715,148.802783 L892.407485,148.802783 L892.407485,148.165924 L895.571876,148.165924 Z M879.643777,148.165924 L879.643777,148.779564 L877.436333,148.779564 L877.436333,149.792899 L879.393346,149.792899 L879.393346,150.406539 L877.436333,150.406539 L877.436333,151.454702 L879.671972,151.454702 L879.671972,152.066683 L876.751378,152.066683 L876.751378,148.165924 L879.643777,148.165924 Z M808.015429,148.165924 L810.105121,150.864281 L810.105121,148.165924 L810.780125,148.165924 L810.780125,152.066683 L810.206289,152.066683 L808.055233,149.292036 L808.055233,152.066683 L807.380229,152.066683 L807.380229,148.165924 L808.015429,148.165924 Z M818.568375,148.165924 L818.568375,148.802783 L817.331144,148.802783 L817.331144,152.066683 L816.639556,152.066683 L816.639556,148.802783 L815.403984,148.802783 L815.403984,148.165924 L818.568375,148.165924 Z M826.084633,148.165924 L826.084633,148.779564 L823.877188,148.779564 L823.877188,149.792899 L825.834202,149.792899 L825.834202,150.406539 L823.877188,150.406539 L823.877188,151.454702 L826.112827,151.454702 L826.112827,152.066683 L823.192234,152.066683 L823.192234,148.165924 L826.084633,148.165924 Z M841.624646,148.165924 L841.624646,148.802783 L840.385757,148.802783 L840.385757,152.066683 L839.695827,152.066683 L839.695827,148.802783 L838.458596,148.802783 L838.458596,148.165924 L841.624646,148.165924 Z M854.771464,148.165924 L854.771464,152.066683 L854.086509,152.066683 L854.086509,148.165924 L854.771464,148.165924 Z M868.745866,148.165924 L869.931684,150.011819 L871.11916,148.165924 L871.848894,148.165924 L871.848894,152.066683 L871.163939,152.066683 L871.163939,149.270476 L869.931684,151.109737 L869.910123,151.109737 L868.689478,149.280427 L868.689478,152.066683 L868.016133,152.066683 L868.016133,148.165924 L868.745866,148.165924 Z M885.020589,148.165924 L887.110281,150.864281 L887.110281,148.165924 L887.783626,148.165924 L887.783626,152.066683 L887.20979,152.066683 L885.058734,149.292036 L885.058734,152.066683 L884.385389,152.066683 L884.385389,148.165924 L885.020589,148.165924 Z M860.348952,148.165924 L862.438644,150.864281 L862.438644,148.165924 L863.113648,148.165924 L863.113648,152.066683 L862.539812,152.066683 L860.388756,149.292036 L860.388756,152.066683 L859.713752,152.066683 L859.713752,148.165924 L860.348952,148.165924 Z M847.429347,148.957022 L846.765952,150.517657 L848.104351,150.517657 L847.429347,148.957022 Z M832.506291,148.797807 L831.511199,148.797807 L831.511199,150.106353 L832.512924,150.106353 C833.002178,150.106353 833.313973,149.850946 833.313973,149.454568 L833.313973,149.454568 L833.313973,149.444617 C833.313973,149.02502 833.013787,148.797807 832.506291,148.797807 L832.506291,148.797807 Z M841.846883,53.07 C842.44228,56.2642439 842.380916,59.1864961 841.447188,61.7372474 C842.218384,61.6294458 842.904997,60.8914196 843.672876,60.783618 C843.637396,61.5535154 843.54426,62.3196707 843.394251,63.0756456 L843.394251,63.0756456 L840.856767,64.9248574 L843.27484,63.6942608 C842.667834,66.6248054 841.470407,70.3447893 840.256395,71.9866904 C842.077413,69.9517282 843.173672,68.7476674 844.29315,68.2633895 C842.707637,70.620098 842.090681,72.5439417 841.855176,74.2588161 C842.105607,73.6484933 842.380916,73.033195 842.684419,72.4178967 C842.623672,73.4501114 842.683225,74.4858887 842.861877,75.504339 C843.67951,71.5720689 845.603354,69.0926325 848.596921,65.2416282 C848.140837,66.7160221 848.328246,67.3479053 848.562093,68.2269028 C849.598646,64.3626306 852.839328,62.3044496 855.640511,60.4519208 C854.766489,61.7986114 854.192652,62.4470794 853.501064,63.6229459 C859.040407,58.7751916 866.793828,61.8865111 869.281557,62.8816027 C862.781951,63.0175985 860.92113,63.90323 858.513008,65.2864073 C860.562897,64.7838861 861.592817,64.84525 862.42206,65.1769472 C858.504716,66.4888096 854.076558,69.4591579 851.558977,71.3498318 C853.278827,70.6134641 855.315447,70.2270368 857.171293,70.7577523 C852.807817,73.6003972 848.847352,76.3501669 845.676327,79.9026437 C847.503374,79.2188314 849.397281,78.729095 851.326789,78.4415176 C850.195701,79.1828608 849.296802,79.1977872 848.421121,80.0270301 C852.038279,78.2574257 854.963848,77.8892418 859.307423,78.9755501 C858.237017,79.2375517 857.208285,79.6472583 856.250833,80.1928787 C859.879601,78.8378957 864.879936,81.2775285 866.271405,83.0371821 C864.815255,82.5611966 863.956159,82.1366242 862.690734,82.2294994 C869.0162,84.1550016 870.830583,90.1023321 868.827132,96.7512022 C866.193457,92.0195418 867.682777,89.5069357 863.395591,84.9610257 C865.734056,89.7341482 865.178463,91.3810247 865.244803,92.2732902 C862.592884,88.3675558 859.370445,85.0356576 856.385171,83.6491634 C857.703667,84.6906925 860.523093,87.4139264 860.863083,89.3128928 C859.566147,88.6627663 856.967299,87.5449468 855.534368,86.9910125 C850.917143,85.2147741 852.233981,84.3357766 848.185616,82.3074483 C849.905466,83.7304292 851.703265,85.2960399 852.559044,87.6826011 L852.559044,87.6826011 L853.033371,88.2713636 C852.128009,87.7705352 851.168079,87.3754338 850.172483,87.0938386 C853.365068,89.5334714 854.771464,92.3429466 856.939105,96.713057 C855.804701,95.6566014 855.157891,95.5521168 854.263967,95.3862682 C857.300655,98.003359 857.750105,101.804609 858.211164,105.129873 C857.373628,103.759964 857.045248,102.960573 856.280686,101.827828 C858.252626,108.912879 852.093009,114.568316 850.117753,116.376066 C852.504498,111.11756 852.777554,108.905754 852.663167,106.530438 L852.643318,106.172513 C852.632157,105.992536 852.619302,105.810737 852.605481,105.62576 C852.174275,107.702185 851.661803,108.601084 851.013335,109.194822 C851.524149,105.093386 850.762904,99.8194011 850.150922,96.7313003 C850.071315,98.6020724 849.538941,100.60884 848.256931,102.05504 C847.412762,95.596896 846.419329,89.7507331 843.379324,84.4750894 C843.019433,84.4784063 842.667834,84.4900157 842.319552,84.5165515 C841.914881,85.2197496 841.528454,85.9577758 841.173538,86.7273133 L841.173538,86.7273133 L841.042518,86.4486876 C843.049286,101.214188 849.598646,124.748103 857.610792,139.153712 L857.610792,139.153712 L851.857504,141.01785 C848.713015,134.128499 846.052804,126.537609 843.981355,118.998132 L843.981355,118.998132 L838.840048,129.376937 L836.828305,133.790168 L834.710418,138.483683 L827.899017,138.483683 L839.936307,113.564932 L842.589885,113.564932 C840.025866,102.812968 838.735564,92.5303555 839.045701,84.98922 L839.045701,84.98922 L839.045701,84.9792691 L839.05731,84.9560503 L838.45528,85.0671688 C838.587772,84.8509677 838.732864,84.6427447 838.889803,84.4435781 L838.889803,84.4435781 L838.558106,84.3838726 C836.179837,85.93124 833.901077,88.3194597 832.512924,93.1970668 C831.648853,90.6612419 832.184544,88.2133166 832.733503,85.9644097 C830.690248,90.0094569 832.272444,89.9232156 829.618867,94.1042586 C828.797916,95.3995361 827.381569,97.8458029 826.718175,99.1394219 C825.859079,97.4112795 826.505888,93.5436904 826.947046,91.9167157 C825.36485,94.8124321 824.759503,99.4014627 824.956863,104.121514 C824.484194,103.375195 823.056238,102.38342 822.097633,97.1558727 C821.686409,100.638248 822.351896,102.521476 823.138748,104.451868 L823.346138,104.9576 C823.903171,106.314847 824.478733,107.764196 824.75121,109.859875 C819.185332,105.710343 817.10559,99.8475954 821.042836,94.5404404 C819.969795,95.2204196 819.528638,96.064589 818.643007,97.3200628 C818.717639,95.0744729 821.284975,90.1454527 825.004959,89.0707539 C823.911466,89.2030709 822.841873,89.4877748 821.8273,89.9165817 C824.668286,86.4586385 827.242256,85.0157558 831.201062,84.286022 C830.000318,84.1450507 829.272243,84.6608398 827.923894,84.7437641 L827.923894,84.7437641 L828.389928,84.5016251 C825.258707,85.0157558 822.102608,85.8897779 818.810514,86.8716015 C819.613221,85.1102895 821.228586,83.8050611 822.897023,82.9758181 C819.823849,83.6740407 814.694152,85.1285328 811.164894,87.2596872 C811.445178,86.4238103 812.062135,85.5912504 813.778668,84.3523614 C811.15826,85.2943814 809.285829,86.1451847 804.973766,91.0012315 C805.824569,88.4654065 808.476488,80.5395023 815.753924,79.449877 C814.405575,79.2160305 813.544821,79.2375908 811.951016,79.0302801 C815.175113,78.101528 818.842025,76.9571727 822.457524,78.6770226 C821.941735,77.9323624 821.576868,77.3784281 820.16218,76.7714223 C825.034811,76.975416 828.16935,77.1147289 831.698608,79.040231 C831.366301,78.6383606 831.009607,78.257296 830.630543,77.8991927 C827.82936,76.7283016 824.94857,75.9438378 821.92515,75.2024946 C822.903657,73.7662458 824.500779,73.2504567 826.071365,73.2687 C823.328229,72.3515573 818.696078,71.1242777 815.311109,71.4908031 C815.69256,70.7544354 816.362589,70.2054765 818.037659,69.8090984 C815.639489,69.4011109 813.889786,69.2933093 809.385338,72.1309787 C810.534669,69.8903642 814.1369,62.9015045 820.546949,65.6811269 C819.432446,64.6976448 818.691103,64.261463 817.364314,63.1784717 C820.284908,63.9247903 823.60188,64.6993033 826.421306,68.4657248 C826.101218,67.3926844 825.887273,66.6115375 824.774429,65.2018245 C828.734894,67.9333508 831.34535,69.732808 833.927613,73.3549413 L833.927613,73.3549413 L834.121656,73.452792 C833.722169,72.3916393 833.251184,71.3587975 832.711943,70.3613742 C833.746218,71.3847736 834.720804,72.4667858 835.630878,73.6020557 C834.94924,72.1210278 834.119997,70.2054765 833.037006,67.3943429 C834.224482,67.974813 835.279279,68.319778 835.882968,67.8388171 C835.085236,66.0393599 834.856365,64.3991173 835.008946,62.8633594 L835.008946,62.8633594 L837.330826,65.848634 L835.340643,61.080487 C835.475049,60.6101995 835.637315,60.1483246 835.826579,59.6973097 C836.508217,60.0240315 837.531503,62.7688257 838.213141,63.1005228 C838.143484,59.2594695 839.7688,54.8943345 841.846883,53.07 Z M787.616052,112.788761 C791.251453,112.788761 794.041027,113.317818 796.616655,114.72919 C798.344921,115.654299 799.776498,117.04908 800.746285,118.752676 L800.746285,118.752676 L794.817198,120.235363 C794.604912,119.847277 794.110683,118.930134 792.629655,118.188791 C790.969511,117.376133 788.816796,117.235162 787.616052,117.235162 C784.859649,117.235162 782.040222,117.764219 782.040222,120.12922 C782.040222,121.752877 783.486422,122.17745 785.357194,122.600364 C786.38048,122.81265 791.468715,123.660136 792.629655,123.907251 C795.523713,124.436308 800.429514,125.494422 800.42288,130.967425 C800.42288,138.764299 791.393121,139.239322 788.016543,139.259112 L787.530586,139.259153 C783.432564,139.232891 777.281049,138.442162 774.125928,132.236167 L774.125928,132.236167 L779.809559,130.75348 C781.22093,133.753682 784.786675,134.672483 788.174962,134.672483 C789.692477,134.672483 794.457307,134.425368 794.457307,131.388681 C794.457307,129.582589 792.727506,129.166309 791.387449,128.919195 C790.874977,128.816369 789.33839,128.569255 787.784803,128.321311 L787.120876,128.215417 C785.802684,128.0052 784.577706,127.809431 784.08016,127.718451 C781.786474,127.295537 775.9967,126.192644 775.9967,120.553792 C776.000177,119.308095 776.344288,118.087072 776.991791,117.022876 C779.07485,113.671076 783.66388,112.788761 787.616052,112.788761 Z M899.303469,113.564932 L899.303469,124.471136 L911.480073,113.564932 L919.493877,113.564932 L907.352102,124.08305 L921.187191,138.483683 L912.856616,138.483683 L903.079842,127.753279 L899.303469,131.000595 L899.303469,138.483683 L893.127268,138.483683 L893.127268,113.564932 L899.303469,113.564932 Z M923.777746,136.76715 L923.777746,137.068995 L923.248689,137.068995 L923.248689,138.483683 L922.920309,138.483683 L922.920309,137.068995 L922.391252,137.068995 L922.391252,136.76715 L923.777746,136.76715 Z M924.497529,136.76715 L925.014977,137.581467 L925.532424,136.76715 L925.874072,136.76715 L925.874072,138.483683 L925.555643,138.483683 L925.555643,137.263038 L925.026586,138.088964 L924.993416,138.088964 L924.462701,137.263038 L924.462701,138.483683 L924.14593,138.483683 L924.14593,136.76715 L924.497529,136.76715 Z M821.108232,113.528824 C823.720113,113.537667 826.997001,113.725001 828.91401,116.45899 C829.793008,117.729391 830.290553,119.459191 830.290553,121.364792 C830.290553,123.764621 829.514382,125.388279 828.595581,126.482879 C826.549009,128.954023 823.548808,129.094995 820.331345,129.094995 L811.612685,129.094995 L811.612685,138.483683 L805.476287,138.483683 L805.476287,113.528446 Z M878.65532,113.558298 C881.478063,113.558298 884.05535,113.812047 886.138408,116.211876 C887.408808,117.694562 887.762066,119.565334 887.762066,121.011534 C887.762066,122.918793 887.126866,125.177651 885.362237,126.517707 C884.020522,127.542652 882.290721,127.894251 881.302263,128.071709 L881.302263,128.071709 L888.855008,138.483683 L881.514549,138.483683 L874.842461,128.459794 L867.749116,128.459794 L867.749116,138.483683 L861.5016,138.483683 L861.5016,113.558298 Z M819.211479,117.870699 L811.612685,117.870362 L811.612685,124.71825 L819.462275,124.718153 C821.451337,124.714854 824.07775,124.606245 824.072896,121.364792 C824.072896,120.023077 823.613489,119.177249 823.014776,118.611705 C822.232481,117.927388 821.390833,117.874748 819.211479,117.870699 Z M877.419748,117.941677 L867.749116,117.941677 L867.749116,124.041588 L877.814351,124.041151 C879.17488,124.030347 881.443327,123.798159 881.446552,121.082849 C881.446552,120.58862 881.373578,119.741134 880.949006,119.140762 C880.491264,118.542049 879.890892,117.941677 877.419748,117.941677 L877.419748,117.941677 Z" id="Combined-Shape"></path>
        </g>
    </g>
</svg>